<?xml version="1.0" standalone="no"?><!DOCTYPE svg PUBLIC "-//W3C//DTD SVG 1.1//EN" "http://www.w3.org/Graphics/SVG/1.1/DTD/svg11.dtd"><svg t="1737470344287" class="icon" viewBox="0 0 1024 1024" version="1.1" xmlns="http://www.w3.org/2000/svg" p-id="4176" xmlns:xlink="http://www.w3.org/1999/xlink" width="200" height="200"><path d="M818.1 872.1c-15.4 0-30.7-5.9-42.4-17.6l-613-612.9c-23.4-23.4-23.4-61.4 0-84.9 23.4-23.4 61.4-23.4 84.9 0l612.9 612.9c23.4 23.4 23.4 61.4 0 84.9a59.914 59.914 0 0 1-42.4 17.6z" fill="" p-id="4177"></path><path d="M205.1 872.1c-15.4 0-30.7-5.9-42.4-17.6-23.4-23.4-23.4-61.4 0-84.9l612.9-612.9c23.4-23.4 61.4-23.4 84.9 0 23.4 23.4 23.4 61.4 0 84.9L247.6 854.5c-11.7 11.7-27.1 17.6-42.5 17.6z" fill="" p-id="4178"></path><path d="M818.1 872.1c-15.4 0-30.7-5.9-42.4-17.6l-613-612.9c-23.4-23.4-23.4-61.4 0-84.9 23.4-23.4 61.4-23.4 84.9 0l612.9 612.9c23.4 23.4 23.4 61.4 0 84.9a59.914 59.914 0 0 1-42.4 17.6z" fill="" p-id="4179"></path><path d="M205.1 872.1c-15.4 0-30.7-5.9-42.4-17.6-23.4-23.4-23.4-61.4 0-84.9l612.9-612.9c23.4-23.4 61.4-23.4 84.9 0 23.4 23.4 23.4 61.4 0 84.9L247.6 854.5c-11.7 11.7-27.1 17.6-42.5 17.6z" fill="" p-id="4180"></path><path d="M818.1 872.1c-15.4 0-30.7-5.9-42.4-17.6l-613-612.9c-23.4-23.4-23.4-61.4 0-84.9 23.4-23.4 61.4-23.4 84.9 0l612.9 612.9c23.4 23.4 23.4 61.4 0 84.9a59.914 59.914 0 0 1-42.4 17.6z" fill="" p-id="4181"></path><path d="M205.1 872.1c-15.4 0-30.7-5.9-42.4-17.6-23.4-23.4-23.4-61.4 0-84.9l612.9-612.9c23.4-23.4 61.4-23.4 84.9 0 23.4 23.4 23.4 61.4 0 84.9L247.6 854.5c-11.7 11.7-27.1 17.6-42.5 17.6z" fill="" p-id="4182"></path><path d="M818.1 872.1c-15.4 0-30.7-5.9-42.4-17.6l-613-612.9c-23.4-23.4-23.4-61.4 0-84.9 23.4-23.4 61.4-23.4 84.9 0l612.9 612.9c23.4 23.4 23.4 61.4 0 84.9a59.914 59.914 0 0 1-42.4 17.6z" fill="" p-id="4183"></path><path d="M205.1 872.1c-15.4 0-30.7-5.9-42.4-17.6-23.4-23.4-23.4-61.4 0-84.9l612.9-612.9c23.4-23.4 61.4-23.4 84.9 0 23.4 23.4 23.4 61.4 0 84.9L247.6 854.5c-11.7 11.7-27.1 17.6-42.5 17.6z" fill="" p-id="4184"></path></svg>