<svg width="1024" height="1024" xmlns="http://www.w3.org/2000/svg" p-id="7002" version="1.1" class="icon" t="1737300276761">

 <g>
  <title>Layer 1</title>
  <path id="svg_1" p-id="7003" d="m678.3,642.4c24.2,-13 51.9,-20.4 81.4,-20.4l0.1,0c3,0 4.4,-3.6 2.2,-5.6c-30.8,-27.6 -65.6,-49.7 -103.7,-65.8c-0.4,-0.2 -0.8,-0.3 -1.2,-0.5c62.1,-45.1 102.5,-118.4 102.5,-201.1c0,-137 -110.8,-248 -247.5,-248s-247.4,111 -247.4,248c0,82.7 40.4,156 102.6,201.1c-0.4,0.2 -0.8,0.3 -1.2,0.5c-44.7,18.9 -84.8,46 -119.3,80.6c-34.5,34.5 -61.5,74.7 -80.4,119.5c-18.5,43.8 -28.4,90.3 -29.4,138.1c-0.1,4.5 3.5,8.2 8,8.2l59.9,0c4.3,0 7.9,-3.5 8,-7.8c2,-77.2 32.9,-149.5 87.6,-204.3c56.5,-56.7 131.7,-87.9 211.7,-87.9c56.7,0 111.1,15.7 158,45.1c2.5,1.5 5.5,1.7 8.1,0.3zm-166.1,-121.4c-45.8,0 -88.9,-17.9 -121.4,-50.4c-32.4,-32.5 -50.3,-75.7 -50.3,-121.6c0,-45.9 17.9,-89.1 50.3,-121.6s75.5,-50.4 121.4,-50.4s88.9,17.9 121.4,50.4c32.4,32.5 50.3,75.7 50.3,121.6c0,45.9 -17.9,89.1 -50.3,121.6c-32.5,32.5 -75.6,50.4 -121.4,50.4zm367.8,238l-240,0c-4.4,0 -8,3.6 -8,8l0,56c0,4.4 3.6,8 8,8l240,0c4.4,0 8,-3.6 8,-8l0,-56c0,-4.4 -3.6,-8 -8,-8z"/>
 </g>
</svg>